<svg id="bit-coin-line" xmlns="http://www.w3.org/2000/svg" width="32" height="32" viewBox="0 0 32 32">
    <g id="Group">
        <path id="Vector" d="M0,0H32V32H0Z" fill="none"/>
        <path id="Vector-2" data-name="Vector" d="M13.328,27.609A13.572,13.572,0,0,1,0,13.8,13.572,13.572,0,0,1,13.328,0,13.572,13.572,0,0,1,26.656,13.8,13.572,13.572,0,0,1,13.328,27.609Zm0-2.761a10.479,10.479,0,0,0,7.539-3.235A11.325,11.325,0,0,0,20.867,6,10.4,10.4,0,0,0,5.788,6a11.325,11.325,0,0,0,0,15.618,10.479,10.479,0,0,0,7.539,3.235ZM12,19.327H8V8.283h4V5.522h2.666V8.283h1.333a3.247,3.247,0,0,1,1.752.515,3.41,3.41,0,0,1,1.228,1.392,3.554,3.554,0,0,1-.315,3.614,3.554,3.554,0,0,1,.315,3.614,3.41,3.41,0,0,1-1.228,1.392,3.247,3.247,0,0,1-1.752.515H14.661v2.761H12Zm-1.333-4.141v1.38h5.331a.655.655,0,0,0,.471-.2.708.708,0,0,0,0-.976.655.655,0,0,0-.471-.2Zm0-4.141v1.38h5.331a.655.655,0,0,0,.471-.2.708.708,0,0,0,0-.976.655.655,0,0,0-.471-.2Z" transform="translate(2.672 2.195)" fill="#fff"/>
    </g>
</svg>
