<svg xmlns="http://www.w3.org/2000/svg" width="18" height="18" viewBox="0 0 18 18">
    <g id="Icon_QR_code" data-name="Icon/QR code" transform="translate(-6 -6)">
        <g id="Group_6" data-name="Group 6">
            <g id="Rectangle_1" data-name="Rectangle 1" transform="translate(14 14)" fill="#fff" stroke="#fff" stroke-width="1">
                <rect width="2" height="2" stroke="none"/>
                <rect x="0.5" y="0.5" width="1" height="1" fill="none"/>
            </g>
            <g id="Rectangle_10" data-name="Rectangle 10" transform="translate(14 10)" fill="#fff" stroke="#fff" stroke-width="1">
                <rect width="2" height="2" stroke="none"/>
                <rect x="0.5" y="0.5" width="1" height="1" fill="none"/>
            </g>
            <g id="Rectangle_12" data-name="Rectangle 12" transform="translate(10 14)" fill="#fff" stroke="#fff" stroke-width="1">
                <rect width="2" height="2" stroke="none"/>
                <rect x="0.5" y="0.5" width="1" height="1" fill="none"/>
            </g>
            <g id="Rectangle_13" data-name="Rectangle 13" transform="translate(6 14)" fill="#fff" stroke="#fff" stroke-width="1">
                <rect width="2" height="2" stroke="none"/>
                <rect x="0.5" y="0.5" width="1" height="1" fill="none"/>
            </g>
            <g id="Rectangle_11" data-name="Rectangle 11" transform="translate(14 6)" fill="#fff" stroke="#fff" stroke-width="1">
                <rect width="2" height="2" stroke="none"/>
                <rect x="0.5" y="0.5" width="1" height="1" fill="none"/>
            </g>
            <g id="Rectangle_4" data-name="Rectangle 4" transform="translate(14 18)" fill="#fff" stroke="#fff" stroke-width="1">
                <rect width="2" height="2" stroke="none"/>
                <rect x="0.5" y="0.5" width="1" height="1" fill="none"/>
            </g>
            <g id="Rectangle_7" data-name="Rectangle 7" transform="translate(14 22)" fill="#fff" stroke="#fff" stroke-width="1">
                <rect width="2" height="2" stroke="none"/>
                <rect x="0.5" y="0.5" width="1" height="1" fill="none"/>
            </g>
            <g id="Rectangle_2" data-name="Rectangle 2" transform="translate(18 14)" fill="#fff" stroke="#fff" stroke-width="1">
                <rect width="2" height="2" stroke="none"/>
                <rect x="0.5" y="0.5" width="1" height="1" fill="none"/>
            </g>
            <g id="Rectangle_5" data-name="Rectangle 5" transform="translate(18 18)" fill="#fff" stroke="#fff" stroke-width="1">
                <rect width="2" height="2" stroke="none"/>
                <rect x="0.5" y="0.5" width="1" height="1" fill="none"/>
            </g>
            <g id="Rectangle_8" data-name="Rectangle 8" transform="translate(18 22)" fill="#fff" stroke="#fff" stroke-width="1">
                <rect width="2" height="2" stroke="none"/>
                <rect x="0.5" y="0.5" width="1" height="1" fill="none"/>
            </g>
            <g id="Rectangle_3" data-name="Rectangle 3" transform="translate(22 14)" fill="#fff" stroke="#fff" stroke-width="1">
                <rect width="2" height="2" stroke="none"/>
                <rect x="0.5" y="0.5" width="1" height="1" fill="none"/>
            </g>
            <g id="Rectangle_6" data-name="Rectangle 6" transform="translate(22 18)" fill="#fff" stroke="#fff" stroke-width="1">
                <rect width="2" height="2" stroke="none"/>
                <rect x="0.5" y="0.5" width="1" height="1" fill="none"/>
            </g>
            <g id="Rectangle_9" data-name="Rectangle 9" transform="translate(22 22)" fill="#fff" stroke="#fff" stroke-width="1">
                <rect width="2" height="2" stroke="none"/>
                <rect x="0.5" y="0.5" width="1" height="1" fill="none"/>
            </g>
            <g id="Rectangle_14" data-name="Rectangle 14" transform="translate(6 6)" fill="none" stroke="#fff" stroke-width="2">
                <rect width="6" height="6" rx="1" stroke="none"/>
                <rect x="1" y="1" width="4" height="4" fill="none"/>
            </g>
            <g id="Rectangle_16" data-name="Rectangle 16" transform="translate(6 18)" fill="none" stroke="#fff" stroke-width="2">
                <rect width="6" height="6" rx="1" stroke="none"/>
                <rect x="1" y="1" width="4" height="4" fill="none"/>
            </g>
            <g id="Rectangle_15" data-name="Rectangle 15" transform="translate(18 6)" fill="none" stroke="#fff" stroke-width="2">
                <rect width="6" height="6" rx="1" stroke="none"/>
                <rect x="1" y="1" width="4" height="4" fill="none"/>
            </g>
        </g>
    </g>
</svg>
