<svg xmlns="http://www.w3.org/2000/svg" width="22.094" height="21.031" viewBox="0 0 22.094 21.031">
  <g id="Subtract" transform="translate(-250.304 -1542.051)" fill="#f6f6f6">
    <path d="M 261.3506774902344 1562.982543945312 C 260.6710205078125 1562.982543945312 259.9906921386719 1562.822021484375 259.38330078125 1562.518432617188 L 252.8358306884766 1559.244262695312 C 251.3355102539062 1558.494140625 250.4035186767578 1556.986206054688 250.4035186767578 1555.308959960938 L 250.4035186767578 1549.824340820312 C 250.4035186767578 1548.147094726562 251.3355102539062 1546.63916015625 252.8358154296875 1545.889038085938 L 259.38330078125 1542.61572265625 C 259.9908447265625 1542.311645507812 260.671142578125 1542.151000976562 261.3506774902344 1542.151000976562 C 262.0302124023438 1542.151000976562 262.7107238769531 1542.311645507812 263.3186950683594 1542.61572265625 L 269.8652954101562 1545.889038085938 C 271.3656005859375 1546.63916015625 272.297607421875 1548.147094726562 272.297607421875 1549.824340820312 L 272.297607421875 1555.308959960938 C 272.297607421875 1556.986206054688 271.3656005859375 1558.494140625 269.8652954101562 1559.244262695312 L 263.3186645507812 1562.518432617188 C 262.7108764648438 1562.822021484375 262.0303344726562 1562.982543945312 261.3506774902344 1562.982543945312 Z M 261.422119140625 1548.32958984375 C 260.8445739746094 1548.32958984375 260.26611328125 1548.465942382812 259.7493286132812 1548.72412109375 L 258.8897399902344 1549.154418945312 C 257.6144104003906 1549.792114257812 256.8221130371094 1551.074096679688 256.8221130371094 1552.5 C 256.8221130371094 1553.926025390625 257.6144104003906 1555.2080078125 258.8897705078125 1555.845703125 L 259.7493286132812 1556.275024414062 C 260.2660522460938 1556.533813476562 260.8445129394531 1556.670654296875 261.422119140625 1556.670654296875 C 261.9996948242188 1556.670654296875 262.5781555175781 1556.533813476562 263.0950012207031 1556.27490234375 L 263.9543762207031 1555.845703125 C 265.2298278808594 1555.2080078125 266.0221252441406 1553.926025390625 266.0221252441406 1552.5 C 266.0221252441406 1551.074096679688 265.2298278808594 1549.792114257812 263.9544067382812 1549.154418945312 L 263.094970703125 1548.724243164062 C 262.5780639648438 1548.465942382812 261.9996032714844 1548.32958984375 261.422119140625 1548.32958984375 Z" stroke="none"/>
    <path d="M 261.3506774902344 1562.882568359375 C 262.0149230957031 1562.882568359375 262.6799926757812 1562.725708007812 263.2739562988281 1562.429077148438 L 269.820556640625 1559.154907226562 C 271.2867736816406 1558.421752929688 272.1976013183594 1556.948120117188 272.1976013183594 1555.308959960938 L 272.1976013183594 1549.824340820312 C 272.1976013183594 1548.185180664062 271.2867736816406 1546.711547851562 269.820556640625 1545.978393554688 L 263.2739562988281 1542.705078125 C 262.6798400878906 1542.408081054688 262.0147705078125 1542.2509765625 261.3506774902344 1542.2509765625 C 260.6866149902344 1542.2509765625 260.0217895507812 1542.408081054688 259.4280395507812 1542.705078125 L 252.8805389404297 1545.978393554688 C 251.4143371582031 1546.711547851562 250.5035095214844 1548.185180664062 250.5035095214844 1549.824340820312 L 250.5035095214844 1555.308959960938 C 250.5035095214844 1556.948120117188 251.4143371582031 1558.421752929688 252.8805389404297 1559.154907226562 L 259.4280090332031 1562.428955078125 C 260.0216064453125 1562.725708007812 260.6864318847656 1562.882568359375 261.3506774902344 1562.882568359375 M 261.422119140625 1548.229614257812 C 262.0150451660156 1548.229614257812 262.6089477539062 1548.36962890625 263.1397399902344 1548.634765625 L 263.9991455078125 1549.065063476562 C 265.3086242675781 1549.7197265625 266.1221008300781 1551.035888671875 266.1221008300781 1552.5 C 266.1221008300781 1553.964111328125 265.3086242675781 1555.280395507812 263.9990539550781 1555.935180664062 L 263.1397705078125 1556.364379882812 C 262.609130859375 1556.630126953125 262.0151672363281 1556.770629882812 261.422119140625 1556.770629882812 C 260.8290405273438 1556.770629882812 260.2350769042969 1556.630126953125 259.7046203613281 1556.364501953125 L 258.8450622558594 1555.93505859375 C 257.5355834960938 1555.280395507812 256.7221069335938 1553.964111328125 256.7221069335938 1552.5 C 256.7221069335938 1551.035888671875 257.5355834960938 1549.7197265625 258.844970703125 1549.065063476562 L 259.7046203613281 1548.634643554688 C 260.2352600097656 1548.36962890625 260.8291320800781 1548.229614257812 261.422119140625 1548.229614257812 M 261.3506774902344 1563.08251953125 C 260.6556701660156 1563.08251953125 259.9598999023438 1562.91845703125 259.3385925292969 1562.60791015625 L 252.7910919189453 1559.333740234375 C 251.2566986083984 1558.566528320312 250.3035125732422 1557.024291992188 250.3035125732422 1555.308959960938 L 250.3035125732422 1549.824340820312 C 250.3035125732422 1548.109008789062 251.2566986083984 1546.566772460938 252.7910919189453 1545.799560546875 L 259.3385925292969 1542.526245117188 C 259.9599609375 1542.21533203125 260.6557312011719 1542.051025390625 261.3506774902344 1542.051025390625 C 262.0456237792969 1542.051025390625 262.7416076660156 1542.21533203125 263.3634033203125 1542.526245117188 L 269.9100036621094 1545.799560546875 C 271.4443969726562 1546.566772460938 272.3976135253906 1548.109008789062 272.3976135253906 1549.824340820312 L 272.3976135253906 1555.308959960938 C 272.3976135253906 1557.024291992188 271.4443969726562 1558.566528320312 269.9100036621094 1559.333740234375 L 263.3634033203125 1562.60791015625 C 262.7416687011719 1562.91845703125 262.0456848144531 1563.08251953125 261.3506774902344 1563.08251953125 Z M 261.422119140625 1548.429565429688 C 260.8599853515625 1548.429565429688 260.2969665527344 1548.562377929688 259.7940063476562 1548.813598632812 L 258.9345092773438 1549.243896484375 C 257.6932067871094 1549.864501953125 256.922119140625 1551.112182617188 256.922119140625 1552.5 C 256.922119140625 1553.887939453125 257.6932067871094 1555.135620117188 258.9345092773438 1555.756225585938 L 259.7940063476562 1556.185546875 C 260.2969970703125 1556.4375 260.8599853515625 1556.570678710938 261.422119140625 1556.570678710938 C 261.9842224121094 1556.570678710938 262.5472106933594 1556.4375 263.0502014160156 1556.185546875 L 263.9096984863281 1555.756225585938 C 265.1510009765625 1555.135620117188 265.922119140625 1553.887939453125 265.922119140625 1552.5 C 265.922119140625 1551.112182617188 265.1510009765625 1549.864501953125 263.9096984863281 1549.243896484375 L 263.0502014160156 1548.813598632812 C 262.5472106933594 1548.562377929688 261.9842224121094 1548.429565429688 261.422119140625 1548.429565429688 Z" stroke="none" fill="#fff"/>
  </g>
</svg>
